<svg width="2076" height="2236" viewBox="0 0 2076 2236" fill="none" xmlns="http://www.w3.org/2000/svg">
<path fill-rule="evenodd" clip-rule="evenodd" d="M1947.51 27.973C1930 33.0114 1917.94 49.0305 1917.94 67.2495V764.959C1917.94 783.083 1935.31 796.155 1952.73 791.143L2046.18 764.249C2063.69 759.211 2075.75 743.192 2075.75 724.973V27.2637C2075.75 9.13986 2058.38 -3.93271 2040.97 1.07939L1947.51 27.973ZM1722.94 491.237C1722.94 473.018 1735 456.999 1752.51 451.961L1845.97 425.067C1863.38 420.055 1880.75 433.128 1880.75 451.252V1148.96C1880.75 1167.18 1868.69 1183.2 1851.18 1188.24L1757.73 1215.13C1740.31 1220.14 1722.94 1207.07 1722.94 1188.95V491.237ZM381.044 1120.39C381.044 1102.17 393.103 1086.15 410.612 1081.11L504.067 1054.22C521.484 1049.21 538.849 1062.28 538.849 1080.4V2153.44C538.849 2171.66 526.79 2187.68 509.281 2192.72L415.826 2219.61C398.409 2224.62 381.044 2211.55 381.044 2193.43V1120.39ZM1336.94 885.226C1336.94 867.007 1349 850.988 1366.51 845.95L1459.97 819.056C1477.38 814.044 1494.75 827.116 1494.75 845.24V1511.68C1494.75 1529.9 1482.69 1545.91 1465.18 1550.95L1371.73 1577.85C1354.31 1582.86 1336.94 1569.79 1336.94 1551.66V885.226ZM982.761 1144.34C965.253 1149.38 953.193 1165.4 953.193 1183.62V1850.05C953.193 1868.18 970.558 1881.25 987.975 1876.24L1081.43 1849.34C1098.94 1844.3 1111 1828.29 1111 1810.07V1143.63C1111 1125.51 1093.63 1112.43 1076.22 1117.45L982.761 1144.34ZM1145.09 1061.26C1145.09 1043.04 1157.15 1027.02 1174.65 1021.98L1268.11 995.087C1285.53 990.075 1302.89 1003.15 1302.89 1021.27V1801.24C1302.89 1819.46 1290.83 1835.47 1273.32 1840.51L1179.87 1867.41C1162.45 1872.42 1145.09 1859.35 1145.09 1841.22V1061.26ZM601.331 1271.74C583.823 1276.78 571.764 1292.8 571.764 1311.02V1977.46C571.764 1995.58 589.129 2008.65 606.546 2003.64L700.001 1976.75C717.509 1971.71 729.569 1955.69 729.569 1937.47V1271.03C729.569 1252.91 712.204 1239.84 694.787 1244.85L601.331 1271.74ZM190.297 1489.29C190.297 1471.07 202.356 1455.05 219.865 1450.01L313.32 1423.12C330.737 1418.1 348.102 1431.18 348.102 1449.3V1999.94C348.102 2018.16 336.043 2034.17 318.534 2039.21L225.079 2066.11C207.662 2071.12 190.297 2058.05 190.297 2039.92V1489.29ZM29.8647 1618.01C12.3562 1623.05 0.296875 1639.07 0.296875 1657.29V2207.92C0.296875 2226.05 17.6619 2239.12 35.0789 2234.11L128.534 2207.21C146.043 2202.18 158.102 2186.16 158.102 2167.94V1617.3C158.102 1599.18 140.737 1586.1 123.32 1591.12L29.8647 1618.01ZM762.484 1226.34C762.484 1208.12 774.543 1192.1 792.052 1187.07L885.507 1160.17C902.924 1155.16 920.289 1168.23 920.289 1186.36V1736.99C920.289 1755.21 908.23 1771.23 890.721 1776.27L797.266 1803.16C779.849 1808.18 762.484 1795.1 762.484 1776.98V1226.34ZM1559.5 1023.81C1542 1028.85 1529.94 1044.87 1529.94 1063.09V1613.72C1529.94 1631.85 1547.3 1644.92 1564.72 1639.91L1658.17 1613.01C1675.68 1607.97 1687.74 1591.95 1687.74 1573.74V1023.1C1687.74 1004.98 1670.38 991.903 1652.96 996.915L1559.5 1023.81Z" fill="#1F1F1F"/>
</svg>
