<svg xmlns="http://www.w3.org/2000/svg" width="24" height="24" viewBox="0 0 24 24" fill="none"><path fill-rule="evenodd" clip-rule="evenodd" d="M19 5a2 2 0 0 0-2-2H7a2 2 0 0 0-2 2v1.667a1 1 0 0 0 2 0V5h10v14H7v-1.667a1 1 0 1 0-2 0V19a2 2 0 0 0 2 2h10a2 2 0 0 0 2-2V5Z" fill="#fff"/><path fill-rule="evenodd" clip-rule="evenodd" d="M9.48 8.273a1 1 0 0 1 1.413.04l2.834 3a1 1 0 0 1 0 1.374l-2.834 3a1 1 0 1 1-1.454-1.374L10.68 13H4a1 1 0 1 1 0-2h6.68L9.44 9.687a1 1 0 0 1 .04-1.414Z" fill="#fff"/></svg>